<mxfile host="Electron" agent="Mozilla/5.0 (Macintosh; Intel Mac OS X 10_15_7) AppleWebKit/537.36 (KHTML, like Gecko) draw.io/24.7.17 Chrome/128.0.6613.36 Electron/32.0.1 Safari/537.36" version="24.7.17">
  <diagram name="페이지-1" id="j7uPaULfCftLuCfdnMdX">
    <mxGraphModel dx="3539" dy="1104" grid="1" gridSize="10" guides="1" tooltips="1" connect="1" arrows="1" fold="1" page="1" pageScale="1" pageWidth="827" pageHeight="1169" math="0" shadow="0">
      <root>
        <mxCell id="0" />
        <mxCell id="1" parent="0" />
        <mxCell id="n1vtJiZAt2Uj1GLHokMY-196" value="" style="rounded=0;whiteSpace=wrap;html=1;" vertex="1" parent="1">
          <mxGeometry x="-1150" y="170" width="1070" height="580" as="geometry" />
        </mxCell>
        <mxCell id="n1vtJiZAt2Uj1GLHokMY-70" value="" style="rounded=0;whiteSpace=wrap;html=1;" vertex="1" parent="1">
          <mxGeometry x="40" y="170" width="780" height="1590" as="geometry" />
        </mxCell>
        <mxCell id="n1vtJiZAt2Uj1GLHokMY-1" value="" style="rounded=0;whiteSpace=wrap;html=1;" vertex="1" parent="1">
          <mxGeometry x="60" y="200" width="730" height="520" as="geometry" />
        </mxCell>
        <mxCell id="n1vtJiZAt2Uj1GLHokMY-2" style="rounded=0;orthogonalLoop=1;jettySize=auto;html=1;exitX=0.5;exitY=1;exitDx=0;exitDy=0;entryX=0.5;entryY=0;entryDx=0;entryDy=0;endArrow=none;endFill=0;" edge="1" parent="1" source="n1vtJiZAt2Uj1GLHokMY-4" target="n1vtJiZAt2Uj1GLHokMY-7">
          <mxGeometry relative="1" as="geometry" />
        </mxCell>
        <mxCell id="n1vtJiZAt2Uj1GLHokMY-3" style="rounded=0;orthogonalLoop=1;jettySize=auto;html=1;exitX=0.5;exitY=1;exitDx=0;exitDy=0;entryX=0.5;entryY=0;entryDx=0;entryDy=0;endArrow=none;endFill=0;" edge="1" parent="1" source="n1vtJiZAt2Uj1GLHokMY-4" target="n1vtJiZAt2Uj1GLHokMY-9">
          <mxGeometry relative="1" as="geometry" />
        </mxCell>
        <mxCell id="n1vtJiZAt2Uj1GLHokMY-58" style="rounded=0;orthogonalLoop=1;jettySize=auto;html=1;exitX=0.5;exitY=1;exitDx=0;exitDy=0;entryX=0.5;entryY=0;entryDx=0;entryDy=0;fillColor=#0050ef;strokeColor=#001DBC;strokeWidth=2;" edge="1" parent="1">
          <mxGeometry relative="1" as="geometry">
            <mxPoint x="385" y="350" as="sourcePoint" />
            <mxPoint x="305" y="390" as="targetPoint" />
          </mxGeometry>
        </mxCell>
        <mxCell id="n1vtJiZAt2Uj1GLHokMY-4" value="&lt;font style=&quot;font-size: 29px;&quot;&gt;A&lt;/font&gt;" style="ellipse;whiteSpace=wrap;html=1;aspect=fixed;" vertex="1" parent="1">
          <mxGeometry x="385" y="280" width="80" height="80" as="geometry" />
        </mxCell>
        <mxCell id="n1vtJiZAt2Uj1GLHokMY-5" style="rounded=0;orthogonalLoop=1;jettySize=auto;html=1;exitX=0.5;exitY=1;exitDx=0;exitDy=0;entryX=0.5;entryY=0;entryDx=0;entryDy=0;endArrow=none;endFill=0;" edge="1" parent="1" source="n1vtJiZAt2Uj1GLHokMY-7" target="n1vtJiZAt2Uj1GLHokMY-10">
          <mxGeometry relative="1" as="geometry" />
        </mxCell>
        <mxCell id="n1vtJiZAt2Uj1GLHokMY-7" value="&lt;font style=&quot;font-size: 29px;&quot;&gt;B&lt;/font&gt;" style="ellipse;whiteSpace=wrap;html=1;aspect=fixed;" vertex="1" parent="1">
          <mxGeometry x="305" y="400" width="80" height="80" as="geometry" />
        </mxCell>
        <mxCell id="n1vtJiZAt2Uj1GLHokMY-8" style="rounded=0;orthogonalLoop=1;jettySize=auto;html=1;exitX=0.5;exitY=1;exitDx=0;exitDy=0;entryX=0.5;entryY=0;entryDx=0;entryDy=0;endArrow=none;endFill=0;" edge="1" parent="1" source="n1vtJiZAt2Uj1GLHokMY-9" target="n1vtJiZAt2Uj1GLHokMY-12">
          <mxGeometry relative="1" as="geometry" />
        </mxCell>
        <mxCell id="n1vtJiZAt2Uj1GLHokMY-9" value="&lt;font style=&quot;font-size: 29px;&quot;&gt;C&lt;/font&gt;" style="ellipse;whiteSpace=wrap;html=1;aspect=fixed;" vertex="1" parent="1">
          <mxGeometry x="465" y="400" width="80" height="80" as="geometry" />
        </mxCell>
        <mxCell id="n1vtJiZAt2Uj1GLHokMY-10" value="&lt;font style=&quot;font-size: 29px;&quot;&gt;D&lt;/font&gt;" style="ellipse;whiteSpace=wrap;html=1;aspect=fixed;" vertex="1" parent="1">
          <mxGeometry x="225" y="520" width="80" height="80" as="geometry" />
        </mxCell>
        <mxCell id="n1vtJiZAt2Uj1GLHokMY-28" style="rounded=0;orthogonalLoop=1;jettySize=auto;html=1;exitX=0.5;exitY=0;exitDx=0;exitDy=0;entryX=0.5;entryY=1;entryDx=0;entryDy=0;" edge="1" parent="1" source="n1vtJiZAt2Uj1GLHokMY-11" target="n1vtJiZAt2Uj1GLHokMY-9">
          <mxGeometry relative="1" as="geometry" />
        </mxCell>
        <mxCell id="n1vtJiZAt2Uj1GLHokMY-11" value="&lt;font style=&quot;font-size: 29px;&quot;&gt;E&lt;/font&gt;" style="ellipse;whiteSpace=wrap;html=1;aspect=fixed;" vertex="1" parent="1">
          <mxGeometry x="385" y="520" width="80" height="80" as="geometry" />
        </mxCell>
        <mxCell id="n1vtJiZAt2Uj1GLHokMY-12" value="&lt;font style=&quot;font-size: 29px;&quot;&gt;F&lt;/font&gt;" style="ellipse;whiteSpace=wrap;html=1;aspect=fixed;" vertex="1" parent="1">
          <mxGeometry x="545" y="520" width="80" height="80" as="geometry" />
        </mxCell>
        <mxCell id="n1vtJiZAt2Uj1GLHokMY-56" value="&lt;font style=&quot;font-size: 18px;&quot;&gt;1&lt;/font&gt;" style="ellipse;whiteSpace=wrap;html=1;aspect=fixed;fillColor=#0050ef;strokeColor=#001DBC;fontColor=#ffffff;" vertex="1" parent="1">
          <mxGeometry x="365" y="280" width="20" height="20" as="geometry" />
        </mxCell>
        <mxCell id="n1vtJiZAt2Uj1GLHokMY-59" value="&lt;font style=&quot;font-size: 18px;&quot;&gt;2&lt;/font&gt;" style="ellipse;whiteSpace=wrap;html=1;aspect=fixed;fillColor=#0050ef;strokeColor=#001DBC;fontColor=#ffffff;" vertex="1" parent="1">
          <mxGeometry x="280" y="400" width="20" height="20" as="geometry" />
        </mxCell>
        <mxCell id="n1vtJiZAt2Uj1GLHokMY-60" value="&lt;font style=&quot;font-size: 18px;&quot;&gt;3&lt;/font&gt;" style="ellipse;whiteSpace=wrap;html=1;aspect=fixed;fillColor=#0050ef;strokeColor=#001DBC;fontColor=#ffffff;" vertex="1" parent="1">
          <mxGeometry x="205" y="520" width="20" height="20" as="geometry" />
        </mxCell>
        <mxCell id="n1vtJiZAt2Uj1GLHokMY-61" style="rounded=0;orthogonalLoop=1;jettySize=auto;html=1;exitX=0.5;exitY=1;exitDx=0;exitDy=0;entryX=0.5;entryY=0;entryDx=0;entryDy=0;fillColor=#0050ef;strokeColor=#001DBC;strokeWidth=2;" edge="1" parent="1">
          <mxGeometry relative="1" as="geometry">
            <mxPoint x="305" y="470" as="sourcePoint" />
            <mxPoint x="225" y="510" as="targetPoint" />
          </mxGeometry>
        </mxCell>
        <mxCell id="n1vtJiZAt2Uj1GLHokMY-62" value="&lt;font style=&quot;font-size: 18px;&quot;&gt;4&lt;/font&gt;" style="ellipse;whiteSpace=wrap;html=1;aspect=fixed;fillColor=#0050ef;strokeColor=#001DBC;fontColor=#ffffff;" vertex="1" parent="1">
          <mxGeometry x="445" y="400" width="20" height="20" as="geometry" />
        </mxCell>
        <mxCell id="n1vtJiZAt2Uj1GLHokMY-63" style="rounded=0;orthogonalLoop=1;jettySize=auto;html=1;exitX=0.5;exitY=1;exitDx=0;exitDy=0;entryX=0.5;entryY=0;entryDx=0;entryDy=0;fillColor=#0050ef;strokeColor=#001DBC;strokeWidth=2;" edge="1" parent="1">
          <mxGeometry relative="1" as="geometry">
            <mxPoint x="460" y="350" as="sourcePoint" />
            <mxPoint x="540" y="390" as="targetPoint" />
          </mxGeometry>
        </mxCell>
        <mxCell id="n1vtJiZAt2Uj1GLHokMY-64" value="&lt;font style=&quot;font-size: 18px;&quot;&gt;5&lt;/font&gt;" style="ellipse;whiteSpace=wrap;html=1;aspect=fixed;fillColor=#0050ef;strokeColor=#001DBC;fontColor=#ffffff;" vertex="1" parent="1">
          <mxGeometry x="365" y="520" width="20" height="20" as="geometry" />
        </mxCell>
        <mxCell id="n1vtJiZAt2Uj1GLHokMY-65" style="rounded=0;orthogonalLoop=1;jettySize=auto;html=1;exitX=0.5;exitY=1;exitDx=0;exitDy=0;entryX=0.5;entryY=0;entryDx=0;entryDy=0;fillColor=#0050ef;strokeColor=#001DBC;strokeWidth=2;" edge="1" parent="1">
          <mxGeometry relative="1" as="geometry">
            <mxPoint x="465" y="470" as="sourcePoint" />
            <mxPoint x="385" y="510" as="targetPoint" />
          </mxGeometry>
        </mxCell>
        <mxCell id="n1vtJiZAt2Uj1GLHokMY-66" value="&lt;font style=&quot;font-size: 18px;&quot;&gt;6&lt;/font&gt;" style="ellipse;whiteSpace=wrap;html=1;aspect=fixed;fillColor=#0050ef;strokeColor=#001DBC;fontColor=#ffffff;" vertex="1" parent="1">
          <mxGeometry x="520" y="520" width="20" height="20" as="geometry" />
        </mxCell>
        <mxCell id="n1vtJiZAt2Uj1GLHokMY-67" style="rounded=0;orthogonalLoop=1;jettySize=auto;html=1;exitX=0.5;exitY=1;exitDx=0;exitDy=0;entryX=0.5;entryY=0;entryDx=0;entryDy=0;fillColor=#0050ef;strokeColor=#001DBC;strokeWidth=2;" edge="1" parent="1">
          <mxGeometry relative="1" as="geometry">
            <mxPoint x="540" y="470" as="sourcePoint" />
            <mxPoint x="620" y="510" as="targetPoint" />
          </mxGeometry>
        </mxCell>
        <mxCell id="n1vtJiZAt2Uj1GLHokMY-71" value="&lt;b style=&quot;font-size: 15px;&quot;&gt;전위 순회&lt;/b&gt;" style="rounded=0;whiteSpace=wrap;html=1;fillColor=#f5f5f5;fontColor=#333333;strokeColor=#666666;fontSize=15;" vertex="1" parent="1">
          <mxGeometry x="60" y="200" width="110" height="40" as="geometry" />
        </mxCell>
        <mxCell id="n1vtJiZAt2Uj1GLHokMY-74" style="rounded=0;orthogonalLoop=1;jettySize=auto;html=1;exitX=0.5;exitY=1;exitDx=0;exitDy=0;entryX=0.507;entryY=0.465;entryDx=0;entryDy=0;fillColor=#0050ef;strokeColor=#001DBC;strokeWidth=2;entryPerimeter=0;endArrow=none;endFill=0;" edge="1" parent="1">
          <mxGeometry relative="1" as="geometry">
            <mxPoint x="294" y="520" as="sourcePoint" />
            <mxPoint x="430.1100000000001" y="449.95000000000005" as="targetPoint" />
          </mxGeometry>
        </mxCell>
        <mxCell id="n1vtJiZAt2Uj1GLHokMY-75" style="rounded=0;orthogonalLoop=1;jettySize=auto;html=1;entryX=0.813;entryY=0;entryDx=0;entryDy=0;fillColor=#0050ef;strokeColor=#001DBC;strokeWidth=2;entryPerimeter=0;endArrow=none;endFill=0;" edge="1" parent="1" target="n1vtJiZAt2Uj1GLHokMY-7">
          <mxGeometry relative="1" as="geometry">
            <mxPoint x="430" y="450" as="sourcePoint" />
            <mxPoint x="365" y="400" as="targetPoint" />
          </mxGeometry>
        </mxCell>
        <mxCell id="n1vtJiZAt2Uj1GLHokMY-76" style="rounded=0;orthogonalLoop=1;jettySize=auto;html=1;exitX=0.5;exitY=1;exitDx=0;exitDy=0;fillColor=#0050ef;strokeColor=#001DBC;strokeWidth=2;" edge="1" parent="1">
          <mxGeometry relative="1" as="geometry">
            <mxPoint x="372" y="400" as="sourcePoint" />
            <mxPoint x="428" y="370" as="targetPoint" />
          </mxGeometry>
        </mxCell>
        <mxCell id="n1vtJiZAt2Uj1GLHokMY-77" value="" style="rounded=0;whiteSpace=wrap;html=1;" vertex="1" parent="1">
          <mxGeometry x="60" y="720" width="730" height="500" as="geometry" />
        </mxCell>
        <mxCell id="n1vtJiZAt2Uj1GLHokMY-78" style="rounded=0;orthogonalLoop=1;jettySize=auto;html=1;exitX=0.5;exitY=1;exitDx=0;exitDy=0;entryX=0.5;entryY=0;entryDx=0;entryDy=0;endArrow=none;endFill=0;" edge="1" parent="1" source="n1vtJiZAt2Uj1GLHokMY-81" target="n1vtJiZAt2Uj1GLHokMY-83">
          <mxGeometry relative="1" as="geometry" />
        </mxCell>
        <mxCell id="n1vtJiZAt2Uj1GLHokMY-79" style="rounded=0;orthogonalLoop=1;jettySize=auto;html=1;exitX=0.5;exitY=1;exitDx=0;exitDy=0;entryX=0.5;entryY=0;entryDx=0;entryDy=0;endArrow=none;endFill=0;" edge="1" parent="1" source="n1vtJiZAt2Uj1GLHokMY-81" target="n1vtJiZAt2Uj1GLHokMY-85">
          <mxGeometry relative="1" as="geometry" />
        </mxCell>
        <mxCell id="n1vtJiZAt2Uj1GLHokMY-81" value="&lt;font style=&quot;font-size: 29px;&quot;&gt;A&lt;/font&gt;" style="ellipse;whiteSpace=wrap;html=1;aspect=fixed;" vertex="1" parent="1">
          <mxGeometry x="395" y="790" width="80" height="80" as="geometry" />
        </mxCell>
        <mxCell id="n1vtJiZAt2Uj1GLHokMY-82" style="rounded=0;orthogonalLoop=1;jettySize=auto;html=1;exitX=0.5;exitY=1;exitDx=0;exitDy=0;entryX=0.5;entryY=0;entryDx=0;entryDy=0;endArrow=none;endFill=0;" edge="1" parent="1" source="n1vtJiZAt2Uj1GLHokMY-83" target="n1vtJiZAt2Uj1GLHokMY-86">
          <mxGeometry relative="1" as="geometry" />
        </mxCell>
        <mxCell id="n1vtJiZAt2Uj1GLHokMY-83" value="&lt;font style=&quot;font-size: 29px;&quot;&gt;B&lt;/font&gt;" style="ellipse;whiteSpace=wrap;html=1;aspect=fixed;" vertex="1" parent="1">
          <mxGeometry x="315" y="910" width="80" height="80" as="geometry" />
        </mxCell>
        <mxCell id="n1vtJiZAt2Uj1GLHokMY-84" style="rounded=0;orthogonalLoop=1;jettySize=auto;html=1;exitX=0.5;exitY=1;exitDx=0;exitDy=0;entryX=0.5;entryY=0;entryDx=0;entryDy=0;endArrow=none;endFill=0;" edge="1" parent="1" source="n1vtJiZAt2Uj1GLHokMY-85" target="n1vtJiZAt2Uj1GLHokMY-89">
          <mxGeometry relative="1" as="geometry" />
        </mxCell>
        <mxCell id="n1vtJiZAt2Uj1GLHokMY-85" value="&lt;font style=&quot;font-size: 29px;&quot;&gt;C&lt;/font&gt;" style="ellipse;whiteSpace=wrap;html=1;aspect=fixed;" vertex="1" parent="1">
          <mxGeometry x="475" y="910" width="80" height="80" as="geometry" />
        </mxCell>
        <mxCell id="n1vtJiZAt2Uj1GLHokMY-86" value="&lt;font style=&quot;font-size: 29px;&quot;&gt;D&lt;/font&gt;" style="ellipse;whiteSpace=wrap;html=1;aspect=fixed;" vertex="1" parent="1">
          <mxGeometry x="235" y="1030" width="80" height="80" as="geometry" />
        </mxCell>
        <mxCell id="n1vtJiZAt2Uj1GLHokMY-87" style="rounded=0;orthogonalLoop=1;jettySize=auto;html=1;exitX=0.5;exitY=0;exitDx=0;exitDy=0;entryX=0.5;entryY=1;entryDx=0;entryDy=0;" edge="1" parent="1" source="n1vtJiZAt2Uj1GLHokMY-88" target="n1vtJiZAt2Uj1GLHokMY-85">
          <mxGeometry relative="1" as="geometry" />
        </mxCell>
        <mxCell id="n1vtJiZAt2Uj1GLHokMY-88" value="&lt;font style=&quot;font-size: 29px;&quot;&gt;E&lt;/font&gt;" style="ellipse;whiteSpace=wrap;html=1;aspect=fixed;" vertex="1" parent="1">
          <mxGeometry x="395" y="1030" width="80" height="80" as="geometry" />
        </mxCell>
        <mxCell id="n1vtJiZAt2Uj1GLHokMY-89" value="&lt;font style=&quot;font-size: 29px;&quot;&gt;F&lt;/font&gt;" style="ellipse;whiteSpace=wrap;html=1;aspect=fixed;" vertex="1" parent="1">
          <mxGeometry x="555" y="1030" width="80" height="80" as="geometry" />
        </mxCell>
        <mxCell id="n1vtJiZAt2Uj1GLHokMY-90" value="&lt;font style=&quot;font-size: 18px;&quot;&gt;1&lt;/font&gt;" style="ellipse;whiteSpace=wrap;html=1;aspect=fixed;fillColor=#0050ef;strokeColor=#001DBC;fontColor=#ffffff;" vertex="1" parent="1">
          <mxGeometry x="285" y="910" width="20" height="20" as="geometry" />
        </mxCell>
        <mxCell id="n1vtJiZAt2Uj1GLHokMY-91" value="&lt;font style=&quot;font-size: 18px;&quot;&gt;2&lt;/font&gt;" style="ellipse;whiteSpace=wrap;html=1;aspect=fixed;fillColor=#0050ef;strokeColor=#001DBC;fontColor=#ffffff;" vertex="1" parent="1">
          <mxGeometry x="205" y="1030" width="20" height="20" as="geometry" />
        </mxCell>
        <mxCell id="n1vtJiZAt2Uj1GLHokMY-92" value="&lt;font style=&quot;font-size: 18px;&quot;&gt;3&lt;/font&gt;" style="ellipse;whiteSpace=wrap;html=1;aspect=fixed;fillColor=#0050ef;strokeColor=#001DBC;fontColor=#ffffff;" vertex="1" parent="1">
          <mxGeometry x="455" y="910" width="20" height="20" as="geometry" />
        </mxCell>
        <mxCell id="n1vtJiZAt2Uj1GLHokMY-93" style="rounded=0;orthogonalLoop=1;jettySize=auto;html=1;exitX=0.5;exitY=1;exitDx=0;exitDy=0;entryX=0.5;entryY=0;entryDx=0;entryDy=0;fillColor=#0050ef;strokeColor=#001DBC;strokeWidth=2;" edge="1" parent="1">
          <mxGeometry relative="1" as="geometry">
            <mxPoint x="315" y="980" as="sourcePoint" />
            <mxPoint x="235" y="1020" as="targetPoint" />
          </mxGeometry>
        </mxCell>
        <mxCell id="n1vtJiZAt2Uj1GLHokMY-94" value="&lt;font style=&quot;font-size: 18px;&quot;&gt;4&lt;/font&gt;" style="ellipse;whiteSpace=wrap;html=1;aspect=fixed;fillColor=#0050ef;strokeColor=#001DBC;fontColor=#ffffff;" vertex="1" parent="1">
          <mxGeometry x="375" y="1030" width="20" height="20" as="geometry" />
        </mxCell>
        <mxCell id="n1vtJiZAt2Uj1GLHokMY-95" style="rounded=0;orthogonalLoop=1;jettySize=auto;html=1;exitX=0.5;exitY=1;exitDx=0;exitDy=0;entryX=0.5;entryY=0;entryDx=0;entryDy=0;fillColor=#0050ef;strokeColor=#001DBC;strokeWidth=2;" edge="1" parent="1">
          <mxGeometry relative="1" as="geometry">
            <mxPoint x="470" y="860" as="sourcePoint" />
            <mxPoint x="550" y="900" as="targetPoint" />
          </mxGeometry>
        </mxCell>
        <mxCell id="n1vtJiZAt2Uj1GLHokMY-96" value="&lt;font style=&quot;font-size: 18px;&quot;&gt;5&lt;/font&gt;" style="ellipse;whiteSpace=wrap;html=1;aspect=fixed;fillColor=#0050ef;strokeColor=#001DBC;fontColor=#ffffff;" vertex="1" parent="1">
          <mxGeometry x="530" y="1030" width="20" height="20" as="geometry" />
        </mxCell>
        <mxCell id="n1vtJiZAt2Uj1GLHokMY-97" style="rounded=0;orthogonalLoop=1;jettySize=auto;html=1;exitX=0.5;exitY=1;exitDx=0;exitDy=0;entryX=0.5;entryY=0;entryDx=0;entryDy=0;fillColor=#0050ef;strokeColor=#001DBC;strokeWidth=2;" edge="1" parent="1">
          <mxGeometry relative="1" as="geometry">
            <mxPoint x="475" y="980" as="sourcePoint" />
            <mxPoint x="395" y="1020" as="targetPoint" />
          </mxGeometry>
        </mxCell>
        <mxCell id="n1vtJiZAt2Uj1GLHokMY-98" value="&lt;font style=&quot;font-size: 18px;&quot;&gt;6&lt;/font&gt;" style="ellipse;whiteSpace=wrap;html=1;aspect=fixed;fillColor=#0050ef;strokeColor=#001DBC;fontColor=#ffffff;" vertex="1" parent="1">
          <mxGeometry x="375" y="780" width="20" height="20" as="geometry" />
        </mxCell>
        <mxCell id="n1vtJiZAt2Uj1GLHokMY-99" style="rounded=0;orthogonalLoop=1;jettySize=auto;html=1;exitX=0.5;exitY=1;exitDx=0;exitDy=0;entryX=0.5;entryY=0;entryDx=0;entryDy=0;fillColor=#0050ef;strokeColor=#001DBC;strokeWidth=2;" edge="1" parent="1">
          <mxGeometry relative="1" as="geometry">
            <mxPoint x="550" y="980" as="sourcePoint" />
            <mxPoint x="630" y="1020" as="targetPoint" />
          </mxGeometry>
        </mxCell>
        <mxCell id="n1vtJiZAt2Uj1GLHokMY-100" value="&lt;b style=&quot;font-size: 15px;&quot;&gt;후위 순회&lt;/b&gt;" style="rounded=0;whiteSpace=wrap;html=1;fillColor=#f5f5f5;fontColor=#333333;strokeColor=#666666;fontSize=15;" vertex="1" parent="1">
          <mxGeometry x="60" y="720" width="110" height="40" as="geometry" />
        </mxCell>
        <mxCell id="n1vtJiZAt2Uj1GLHokMY-101" style="rounded=0;orthogonalLoop=1;jettySize=auto;html=1;exitX=0.5;exitY=1;exitDx=0;exitDy=0;entryX=0.507;entryY=0.465;entryDx=0;entryDy=0;fillColor=#0050ef;strokeColor=#001DBC;strokeWidth=2;entryPerimeter=0;endArrow=none;endFill=0;" edge="1" parent="1">
          <mxGeometry relative="1" as="geometry">
            <mxPoint x="304" y="1030" as="sourcePoint" />
            <mxPoint x="440.1100000000001" y="959.95" as="targetPoint" />
          </mxGeometry>
        </mxCell>
        <mxCell id="n1vtJiZAt2Uj1GLHokMY-102" style="rounded=0;orthogonalLoop=1;jettySize=auto;html=1;entryX=0.813;entryY=0;entryDx=0;entryDy=0;fillColor=#0050ef;strokeColor=#001DBC;strokeWidth=2;entryPerimeter=0;endArrow=none;endFill=0;" edge="1" parent="1" target="n1vtJiZAt2Uj1GLHokMY-83">
          <mxGeometry relative="1" as="geometry">
            <mxPoint x="440" y="960" as="sourcePoint" />
            <mxPoint x="375" y="910" as="targetPoint" />
          </mxGeometry>
        </mxCell>
        <mxCell id="n1vtJiZAt2Uj1GLHokMY-103" style="rounded=0;orthogonalLoop=1;jettySize=auto;html=1;exitX=0.5;exitY=1;exitDx=0;exitDy=0;fillColor=#0050ef;strokeColor=#001DBC;strokeWidth=2;endArrow=none;endFill=0;" edge="1" parent="1">
          <mxGeometry relative="1" as="geometry">
            <mxPoint x="382" y="910" as="sourcePoint" />
            <mxPoint x="430" y="880" as="targetPoint" />
          </mxGeometry>
        </mxCell>
        <mxCell id="n1vtJiZAt2Uj1GLHokMY-104" value="&lt;font style=&quot;font-size: 16px;&quot;&gt;&lt;b&gt;루트부터 시작하여 순회.&lt;/b&gt;&lt;/font&gt;" style="text;strokeColor=none;align=left;fillColor=none;html=1;verticalAlign=middle;whiteSpace=wrap;rounded=0;" vertex="1" parent="1">
          <mxGeometry x="172.5" y="205" width="405" height="30" as="geometry" />
        </mxCell>
        <mxCell id="n1vtJiZAt2Uj1GLHokMY-105" value="&lt;font style=&quot;font-size: 16px;&quot;&gt;&lt;b&gt;루트를 가장 마지막에 순회&lt;/b&gt;&lt;/font&gt;" style="text;strokeColor=none;align=left;fillColor=none;html=1;verticalAlign=middle;whiteSpace=wrap;rounded=0;" vertex="1" parent="1">
          <mxGeometry x="172.5" y="725" width="405" height="30" as="geometry" />
        </mxCell>
        <mxCell id="n1vtJiZAt2Uj1GLHokMY-134" value="" style="rounded=0;whiteSpace=wrap;html=1;" vertex="1" parent="1">
          <mxGeometry x="60" y="1220" width="730" height="510" as="geometry" />
        </mxCell>
        <mxCell id="n1vtJiZAt2Uj1GLHokMY-135" style="rounded=0;orthogonalLoop=1;jettySize=auto;html=1;exitX=0.5;exitY=1;exitDx=0;exitDy=0;entryX=0.5;entryY=0;entryDx=0;entryDy=0;endArrow=none;endFill=0;" edge="1" parent="1" source="n1vtJiZAt2Uj1GLHokMY-138" target="n1vtJiZAt2Uj1GLHokMY-140">
          <mxGeometry relative="1" as="geometry" />
        </mxCell>
        <mxCell id="n1vtJiZAt2Uj1GLHokMY-136" style="rounded=0;orthogonalLoop=1;jettySize=auto;html=1;exitX=0.5;exitY=1;exitDx=0;exitDy=0;entryX=0.5;entryY=0;entryDx=0;entryDy=0;endArrow=none;endFill=0;" edge="1" parent="1" source="n1vtJiZAt2Uj1GLHokMY-138" target="n1vtJiZAt2Uj1GLHokMY-142">
          <mxGeometry relative="1" as="geometry" />
        </mxCell>
        <mxCell id="n1vtJiZAt2Uj1GLHokMY-137" style="rounded=0;orthogonalLoop=1;jettySize=auto;html=1;exitX=0.5;exitY=1;exitDx=0;exitDy=0;entryX=0.5;entryY=0;entryDx=0;entryDy=0;fillColor=#0050ef;strokeColor=#001DBC;strokeWidth=2;" edge="1" parent="1">
          <mxGeometry relative="1" as="geometry">
            <mxPoint x="395" y="1360" as="sourcePoint" />
            <mxPoint x="315" y="1400" as="targetPoint" />
          </mxGeometry>
        </mxCell>
        <mxCell id="n1vtJiZAt2Uj1GLHokMY-138" value="&lt;font style=&quot;font-size: 29px;&quot;&gt;A&lt;/font&gt;" style="ellipse;whiteSpace=wrap;html=1;aspect=fixed;" vertex="1" parent="1">
          <mxGeometry x="395" y="1290" width="80" height="80" as="geometry" />
        </mxCell>
        <mxCell id="n1vtJiZAt2Uj1GLHokMY-139" style="rounded=0;orthogonalLoop=1;jettySize=auto;html=1;exitX=0.5;exitY=1;exitDx=0;exitDy=0;entryX=0.5;entryY=0;entryDx=0;entryDy=0;endArrow=none;endFill=0;" edge="1" parent="1" source="n1vtJiZAt2Uj1GLHokMY-140" target="n1vtJiZAt2Uj1GLHokMY-143">
          <mxGeometry relative="1" as="geometry" />
        </mxCell>
        <mxCell id="n1vtJiZAt2Uj1GLHokMY-140" value="&lt;font style=&quot;font-size: 29px;&quot;&gt;B&lt;/font&gt;" style="ellipse;whiteSpace=wrap;html=1;aspect=fixed;" vertex="1" parent="1">
          <mxGeometry x="315" y="1410" width="80" height="80" as="geometry" />
        </mxCell>
        <mxCell id="n1vtJiZAt2Uj1GLHokMY-141" style="rounded=0;orthogonalLoop=1;jettySize=auto;html=1;exitX=0.5;exitY=1;exitDx=0;exitDy=0;entryX=0.5;entryY=0;entryDx=0;entryDy=0;endArrow=none;endFill=0;" edge="1" parent="1" source="n1vtJiZAt2Uj1GLHokMY-142" target="n1vtJiZAt2Uj1GLHokMY-146">
          <mxGeometry relative="1" as="geometry" />
        </mxCell>
        <mxCell id="n1vtJiZAt2Uj1GLHokMY-142" value="&lt;font style=&quot;font-size: 29px;&quot;&gt;C&lt;/font&gt;" style="ellipse;whiteSpace=wrap;html=1;aspect=fixed;" vertex="1" parent="1">
          <mxGeometry x="475" y="1410" width="80" height="80" as="geometry" />
        </mxCell>
        <mxCell id="n1vtJiZAt2Uj1GLHokMY-143" value="&lt;font style=&quot;font-size: 29px;&quot;&gt;D&lt;/font&gt;" style="ellipse;whiteSpace=wrap;html=1;aspect=fixed;" vertex="1" parent="1">
          <mxGeometry x="235" y="1530" width="80" height="80" as="geometry" />
        </mxCell>
        <mxCell id="n1vtJiZAt2Uj1GLHokMY-144" style="rounded=0;orthogonalLoop=1;jettySize=auto;html=1;exitX=0.5;exitY=0;exitDx=0;exitDy=0;entryX=0.5;entryY=1;entryDx=0;entryDy=0;" edge="1" parent="1" source="n1vtJiZAt2Uj1GLHokMY-145" target="n1vtJiZAt2Uj1GLHokMY-142">
          <mxGeometry relative="1" as="geometry" />
        </mxCell>
        <mxCell id="n1vtJiZAt2Uj1GLHokMY-145" value="&lt;font style=&quot;font-size: 29px;&quot;&gt;E&lt;/font&gt;" style="ellipse;whiteSpace=wrap;html=1;aspect=fixed;" vertex="1" parent="1">
          <mxGeometry x="395" y="1530" width="80" height="80" as="geometry" />
        </mxCell>
        <mxCell id="n1vtJiZAt2Uj1GLHokMY-146" value="&lt;font style=&quot;font-size: 29px;&quot;&gt;F&lt;/font&gt;" style="ellipse;whiteSpace=wrap;html=1;aspect=fixed;" vertex="1" parent="1">
          <mxGeometry x="555" y="1530" width="80" height="80" as="geometry" />
        </mxCell>
        <mxCell id="n1vtJiZAt2Uj1GLHokMY-147" value="&lt;font style=&quot;font-size: 18px;&quot;&gt;1&lt;/font&gt;" style="ellipse;whiteSpace=wrap;html=1;aspect=fixed;fillColor=#0050ef;strokeColor=#001DBC;fontColor=#ffffff;" vertex="1" parent="1">
          <mxGeometry x="375" y="1290" width="20" height="20" as="geometry" />
        </mxCell>
        <mxCell id="n1vtJiZAt2Uj1GLHokMY-148" value="&lt;font style=&quot;font-size: 18px;&quot;&gt;2&lt;/font&gt;" style="ellipse;whiteSpace=wrap;html=1;aspect=fixed;fillColor=#0050ef;strokeColor=#001DBC;fontColor=#ffffff;" vertex="1" parent="1">
          <mxGeometry x="290" y="1410" width="20" height="20" as="geometry" />
        </mxCell>
        <mxCell id="n1vtJiZAt2Uj1GLHokMY-149" value="&lt;font style=&quot;font-size: 18px;&quot;&gt;3&lt;/font&gt;" style="ellipse;whiteSpace=wrap;html=1;aspect=fixed;fillColor=#0050ef;strokeColor=#001DBC;fontColor=#ffffff;" vertex="1" parent="1">
          <mxGeometry x="215" y="1530" width="20" height="20" as="geometry" />
        </mxCell>
        <mxCell id="n1vtJiZAt2Uj1GLHokMY-150" style="rounded=0;orthogonalLoop=1;jettySize=auto;html=1;exitX=0.5;exitY=1;exitDx=0;exitDy=0;entryX=0.5;entryY=0;entryDx=0;entryDy=0;fillColor=#0050ef;strokeColor=#001DBC;strokeWidth=2;" edge="1" parent="1">
          <mxGeometry relative="1" as="geometry">
            <mxPoint x="315" y="1480" as="sourcePoint" />
            <mxPoint x="235" y="1520" as="targetPoint" />
          </mxGeometry>
        </mxCell>
        <mxCell id="n1vtJiZAt2Uj1GLHokMY-151" value="&lt;font style=&quot;font-size: 18px;&quot;&gt;4&lt;/font&gt;" style="ellipse;whiteSpace=wrap;html=1;aspect=fixed;fillColor=#0050ef;strokeColor=#001DBC;fontColor=#ffffff;" vertex="1" parent="1">
          <mxGeometry x="455" y="1410" width="20" height="20" as="geometry" />
        </mxCell>
        <mxCell id="n1vtJiZAt2Uj1GLHokMY-152" style="rounded=0;orthogonalLoop=1;jettySize=auto;html=1;exitX=0.5;exitY=1;exitDx=0;exitDy=0;entryX=0.5;entryY=0;entryDx=0;entryDy=0;fillColor=#0050ef;strokeColor=#001DBC;strokeWidth=2;" edge="1" parent="1">
          <mxGeometry relative="1" as="geometry">
            <mxPoint x="470" y="1360" as="sourcePoint" />
            <mxPoint x="550" y="1400" as="targetPoint" />
          </mxGeometry>
        </mxCell>
        <mxCell id="n1vtJiZAt2Uj1GLHokMY-153" value="&lt;font style=&quot;font-size: 18px;&quot;&gt;5&lt;/font&gt;" style="ellipse;whiteSpace=wrap;html=1;aspect=fixed;fillColor=#0050ef;strokeColor=#001DBC;fontColor=#ffffff;" vertex="1" parent="1">
          <mxGeometry x="375" y="1530" width="20" height="20" as="geometry" />
        </mxCell>
        <mxCell id="n1vtJiZAt2Uj1GLHokMY-154" style="rounded=0;orthogonalLoop=1;jettySize=auto;html=1;exitX=0.5;exitY=1;exitDx=0;exitDy=0;entryX=0.5;entryY=0;entryDx=0;entryDy=0;fillColor=#0050ef;strokeColor=#001DBC;strokeWidth=2;" edge="1" parent="1">
          <mxGeometry relative="1" as="geometry">
            <mxPoint x="475" y="1480" as="sourcePoint" />
            <mxPoint x="395" y="1520" as="targetPoint" />
          </mxGeometry>
        </mxCell>
        <mxCell id="n1vtJiZAt2Uj1GLHokMY-155" value="&lt;font style=&quot;font-size: 18px;&quot;&gt;6&lt;/font&gt;" style="ellipse;whiteSpace=wrap;html=1;aspect=fixed;fillColor=#0050ef;strokeColor=#001DBC;fontColor=#ffffff;" vertex="1" parent="1">
          <mxGeometry x="530" y="1530" width="20" height="20" as="geometry" />
        </mxCell>
        <mxCell id="n1vtJiZAt2Uj1GLHokMY-156" style="rounded=0;orthogonalLoop=1;jettySize=auto;html=1;exitX=0.5;exitY=1;exitDx=0;exitDy=0;entryX=0.5;entryY=0;entryDx=0;entryDy=0;fillColor=#0050ef;strokeColor=#001DBC;strokeWidth=2;" edge="1" parent="1">
          <mxGeometry relative="1" as="geometry">
            <mxPoint x="550" y="1480" as="sourcePoint" />
            <mxPoint x="630" y="1520" as="targetPoint" />
          </mxGeometry>
        </mxCell>
        <mxCell id="n1vtJiZAt2Uj1GLHokMY-157" value="&lt;b style=&quot;font-size: 15px;&quot;&gt;중위 순회&lt;/b&gt;" style="rounded=0;whiteSpace=wrap;html=1;fillColor=#f5f5f5;fontColor=#333333;strokeColor=#666666;fontSize=15;" vertex="1" parent="1">
          <mxGeometry x="60" y="1220" width="110" height="40" as="geometry" />
        </mxCell>
        <mxCell id="n1vtJiZAt2Uj1GLHokMY-158" style="rounded=0;orthogonalLoop=1;jettySize=auto;html=1;exitX=0.5;exitY=1;exitDx=0;exitDy=0;entryX=0.507;entryY=0.465;entryDx=0;entryDy=0;fillColor=#0050ef;strokeColor=#001DBC;strokeWidth=2;entryPerimeter=0;endArrow=none;endFill=0;" edge="1" parent="1">
          <mxGeometry relative="1" as="geometry">
            <mxPoint x="304" y="1530" as="sourcePoint" />
            <mxPoint x="440.1100000000001" y="1459.95" as="targetPoint" />
          </mxGeometry>
        </mxCell>
        <mxCell id="n1vtJiZAt2Uj1GLHokMY-159" style="rounded=0;orthogonalLoop=1;jettySize=auto;html=1;entryX=0.813;entryY=0;entryDx=0;entryDy=0;fillColor=#0050ef;strokeColor=#001DBC;strokeWidth=2;entryPerimeter=0;endArrow=none;endFill=0;" edge="1" parent="1" target="n1vtJiZAt2Uj1GLHokMY-140">
          <mxGeometry relative="1" as="geometry">
            <mxPoint x="440" y="1460" as="sourcePoint" />
            <mxPoint x="375" y="1410" as="targetPoint" />
          </mxGeometry>
        </mxCell>
        <mxCell id="n1vtJiZAt2Uj1GLHokMY-160" style="rounded=0;orthogonalLoop=1;jettySize=auto;html=1;exitX=0.5;exitY=1;exitDx=0;exitDy=0;fillColor=#0050ef;strokeColor=#001DBC;strokeWidth=2;" edge="1" parent="1">
          <mxGeometry relative="1" as="geometry">
            <mxPoint x="382" y="1410" as="sourcePoint" />
            <mxPoint x="438" y="1380" as="targetPoint" />
          </mxGeometry>
        </mxCell>
        <mxCell id="n1vtJiZAt2Uj1GLHokMY-161" value="&lt;font style=&quot;font-size: 16px;&quot;&gt;&lt;b&gt;루트를 중간에 순회&lt;/b&gt;&lt;/font&gt;" style="text;strokeColor=none;align=left;fillColor=none;html=1;verticalAlign=middle;whiteSpace=wrap;rounded=0;" vertex="1" parent="1">
          <mxGeometry x="172.5" y="1225" width="405" height="30" as="geometry" />
        </mxCell>
        <mxCell id="n1vtJiZAt2Uj1GLHokMY-162" value="&lt;font style=&quot;font-size: 29px;&quot;&gt;A &amp;gt; B &amp;gt; D &amp;gt; C &amp;gt; E &amp;gt; F&lt;/font&gt;" style="text;strokeColor=none;align=center;fillColor=none;html=1;verticalAlign=middle;whiteSpace=wrap;rounded=0;" vertex="1" parent="1">
          <mxGeometry x="227.5" y="650" width="405" height="30" as="geometry" />
        </mxCell>
        <mxCell id="n1vtJiZAt2Uj1GLHokMY-163" value="&lt;font style=&quot;font-size: 29px;&quot;&gt;A &amp;gt; B &amp;gt; D &amp;gt; C &amp;gt; E &amp;gt; F&lt;/font&gt;" style="text;strokeColor=none;align=center;fillColor=none;html=1;verticalAlign=middle;whiteSpace=wrap;rounded=0;" vertex="1" parent="1">
          <mxGeometry x="232.5" y="1169" width="405" height="30" as="geometry" />
        </mxCell>
        <mxCell id="n1vtJiZAt2Uj1GLHokMY-164" style="rounded=0;orthogonalLoop=1;jettySize=auto;html=1;exitX=0.5;exitY=1;exitDx=0;exitDy=0;fillColor=#0050ef;strokeColor=#001DBC;strokeWidth=2;" edge="1" parent="1">
          <mxGeometry relative="1" as="geometry">
            <mxPoint x="430" y="880" as="sourcePoint" />
            <mxPoint x="490" y="910" as="targetPoint" />
          </mxGeometry>
        </mxCell>
        <mxCell id="n1vtJiZAt2Uj1GLHokMY-165" style="rounded=0;orthogonalLoop=1;jettySize=auto;html=1;fillColor=#0050ef;strokeColor=#001DBC;strokeWidth=2;endArrow=none;endFill=0;" edge="1" parent="1">
          <mxGeometry relative="1" as="geometry">
            <mxPoint x="462" y="1032" as="sourcePoint" />
            <mxPoint x="510" y="1002" as="targetPoint" />
          </mxGeometry>
        </mxCell>
        <mxCell id="n1vtJiZAt2Uj1GLHokMY-166" style="rounded=0;orthogonalLoop=1;jettySize=auto;html=1;exitX=0.5;exitY=1;exitDx=0;exitDy=0;fillColor=#0050ef;strokeColor=#001DBC;strokeWidth=2;" edge="1" parent="1">
          <mxGeometry relative="1" as="geometry">
            <mxPoint x="510" y="1002" as="sourcePoint" />
            <mxPoint x="570" y="1030" as="targetPoint" />
          </mxGeometry>
        </mxCell>
        <mxCell id="n1vtJiZAt2Uj1GLHokMY-226" value="" style="rounded=0;whiteSpace=wrap;html=1;" vertex="1" parent="1">
          <mxGeometry x="-1150" y="750" width="1070" height="580" as="geometry" />
        </mxCell>
        <mxCell id="n1vtJiZAt2Uj1GLHokMY-227" value="" style="rounded=0;whiteSpace=wrap;html=1;" vertex="1" parent="1">
          <mxGeometry x="-1125" y="775" width="730" height="525" as="geometry" />
        </mxCell>
        <mxCell id="n1vtJiZAt2Uj1GLHokMY-228" style="rounded=0;orthogonalLoop=1;jettySize=auto;html=1;exitX=0.5;exitY=1;exitDx=0;exitDy=0;entryX=0.5;entryY=0;entryDx=0;entryDy=0;endArrow=none;endFill=0;" edge="1" parent="1" source="n1vtJiZAt2Uj1GLHokMY-230" target="n1vtJiZAt2Uj1GLHokMY-232">
          <mxGeometry relative="1" as="geometry" />
        </mxCell>
        <mxCell id="n1vtJiZAt2Uj1GLHokMY-229" style="rounded=0;orthogonalLoop=1;jettySize=auto;html=1;exitX=0.5;exitY=1;exitDx=0;exitDy=0;entryX=0.5;entryY=0;entryDx=0;entryDy=0;endArrow=none;endFill=0;" edge="1" parent="1" source="n1vtJiZAt2Uj1GLHokMY-230" target="n1vtJiZAt2Uj1GLHokMY-234">
          <mxGeometry relative="1" as="geometry" />
        </mxCell>
        <mxCell id="n1vtJiZAt2Uj1GLHokMY-230" value="&lt;font style=&quot;font-size: 29px;&quot;&gt;A&lt;/font&gt;" style="ellipse;whiteSpace=wrap;html=1;aspect=fixed;" vertex="1" parent="1">
          <mxGeometry x="-800" y="855" width="80" height="80" as="geometry" />
        </mxCell>
        <mxCell id="n1vtJiZAt2Uj1GLHokMY-231" style="rounded=0;orthogonalLoop=1;jettySize=auto;html=1;exitX=0.5;exitY=1;exitDx=0;exitDy=0;entryX=0.5;entryY=0;entryDx=0;entryDy=0;endArrow=none;endFill=0;" edge="1" parent="1" source="n1vtJiZAt2Uj1GLHokMY-232" target="n1vtJiZAt2Uj1GLHokMY-235">
          <mxGeometry relative="1" as="geometry" />
        </mxCell>
        <mxCell id="n1vtJiZAt2Uj1GLHokMY-232" value="&lt;font style=&quot;font-size: 29px;&quot;&gt;B&lt;/font&gt;" style="ellipse;whiteSpace=wrap;html=1;aspect=fixed;" vertex="1" parent="1">
          <mxGeometry x="-940" y="969" width="80" height="80" as="geometry" />
        </mxCell>
        <mxCell id="n1vtJiZAt2Uj1GLHokMY-233" style="rounded=0;orthogonalLoop=1;jettySize=auto;html=1;exitX=0.5;exitY=1;exitDx=0;exitDy=0;entryX=0.5;entryY=0;entryDx=0;entryDy=0;endArrow=none;endFill=0;" edge="1" parent="1" source="n1vtJiZAt2Uj1GLHokMY-234" target="n1vtJiZAt2Uj1GLHokMY-238">
          <mxGeometry relative="1" as="geometry" />
        </mxCell>
        <mxCell id="n1vtJiZAt2Uj1GLHokMY-234" value="&lt;font style=&quot;font-size: 29px;&quot;&gt;C&lt;/font&gt;" style="ellipse;whiteSpace=wrap;html=1;aspect=fixed;" vertex="1" parent="1">
          <mxGeometry x="-640" y="970" width="80" height="80" as="geometry" />
        </mxCell>
        <mxCell id="n1vtJiZAt2Uj1GLHokMY-235" value="&lt;font style=&quot;font-size: 29px;&quot;&gt;D&lt;/font&gt;" style="ellipse;whiteSpace=wrap;html=1;aspect=fixed;" vertex="1" parent="1">
          <mxGeometry x="-1020" y="1089" width="80" height="80" as="geometry" />
        </mxCell>
        <mxCell id="n1vtJiZAt2Uj1GLHokMY-236" style="rounded=0;orthogonalLoop=1;jettySize=auto;html=1;exitX=0.5;exitY=0;exitDx=0;exitDy=0;entryX=0.5;entryY=1;entryDx=0;entryDy=0;endArrow=none;endFill=0;" edge="1" parent="1" source="n1vtJiZAt2Uj1GLHokMY-237" target="n1vtJiZAt2Uj1GLHokMY-234">
          <mxGeometry relative="1" as="geometry" />
        </mxCell>
        <mxCell id="n1vtJiZAt2Uj1GLHokMY-237" value="&lt;font style=&quot;font-size: 29px;&quot;&gt;E&lt;/font&gt;" style="ellipse;whiteSpace=wrap;html=1;aspect=fixed;" vertex="1" parent="1">
          <mxGeometry x="-720" y="1090" width="80" height="80" as="geometry" />
        </mxCell>
        <mxCell id="n1vtJiZAt2Uj1GLHokMY-238" value="&lt;font style=&quot;font-size: 29px;&quot;&gt;F&lt;/font&gt;" style="ellipse;whiteSpace=wrap;html=1;aspect=fixed;" vertex="1" parent="1">
          <mxGeometry x="-560" y="1090" width="80" height="80" as="geometry" />
        </mxCell>
        <mxCell id="n1vtJiZAt2Uj1GLHokMY-239" value="&lt;b style=&quot;font-size: 15px;&quot;&gt;전위 순회&lt;/b&gt;" style="rounded=0;whiteSpace=wrap;html=1;fillColor=#f5f5f5;fontColor=#333333;strokeColor=#666666;fontSize=15;" vertex="1" parent="1">
          <mxGeometry x="-1125" y="775" width="110" height="40" as="geometry" />
        </mxCell>
        <mxCell id="n1vtJiZAt2Uj1GLHokMY-240" value="&lt;font style=&quot;font-size: 16px;&quot;&gt;&lt;b&gt;루트부터 시작하여 순회.&lt;/b&gt;&lt;/font&gt;" style="text;strokeColor=none;align=left;fillColor=none;html=1;verticalAlign=middle;whiteSpace=wrap;rounded=0;" vertex="1" parent="1">
          <mxGeometry x="-1012.5" y="780" width="405" height="30" as="geometry" />
        </mxCell>
        <mxCell id="n1vtJiZAt2Uj1GLHokMY-241" style="edgeStyle=orthogonalEdgeStyle;rounded=0;orthogonalLoop=1;jettySize=auto;html=1;exitX=0.5;exitY=1;exitDx=0;exitDy=0;" edge="1" parent="1" source="n1vtJiZAt2Uj1GLHokMY-227" target="n1vtJiZAt2Uj1GLHokMY-227">
          <mxGeometry relative="1" as="geometry" />
        </mxCell>
        <mxCell id="n1vtJiZAt2Uj1GLHokMY-242" value="" style="rounded=0;whiteSpace=wrap;html=1;" vertex="1" parent="1">
          <mxGeometry x="-395" y="775" width="290" height="175" as="geometry" />
        </mxCell>
        <mxCell id="n1vtJiZAt2Uj1GLHokMY-243" value="" style="rounded=0;whiteSpace=wrap;html=1;" vertex="1" parent="1">
          <mxGeometry x="-395" y="950" width="290" height="175" as="geometry" />
        </mxCell>
        <mxCell id="n1vtJiZAt2Uj1GLHokMY-244" value="" style="rounded=0;whiteSpace=wrap;html=1;" vertex="1" parent="1">
          <mxGeometry x="-395" y="1125" width="290" height="175" as="geometry" />
        </mxCell>
        <mxCell id="n1vtJiZAt2Uj1GLHokMY-245" style="rounded=0;orthogonalLoop=1;jettySize=auto;html=1;exitX=0.5;exitY=1;exitDx=0;exitDy=0;entryX=0.5;entryY=0;entryDx=0;entryDy=0;endArrow=none;endFill=0;" edge="1" parent="1" source="n1vtJiZAt2Uj1GLHokMY-247" target="n1vtJiZAt2Uj1GLHokMY-248">
          <mxGeometry relative="1" as="geometry" />
        </mxCell>
        <mxCell id="n1vtJiZAt2Uj1GLHokMY-246" style="rounded=0;orthogonalLoop=1;jettySize=auto;html=1;exitX=0.5;exitY=1;exitDx=0;exitDy=0;entryX=0.5;entryY=0;entryDx=0;entryDy=0;endArrow=none;endFill=0;" edge="1" parent="1" source="n1vtJiZAt2Uj1GLHokMY-247" target="n1vtJiZAt2Uj1GLHokMY-249">
          <mxGeometry relative="1" as="geometry" />
        </mxCell>
        <mxCell id="n1vtJiZAt2Uj1GLHokMY-247" value="&lt;font style=&quot;font-size: 29px;&quot;&gt;A&lt;/font&gt;" style="ellipse;whiteSpace=wrap;html=1;aspect=fixed;" vertex="1" parent="1">
          <mxGeometry x="-275" y="790" width="50" height="50" as="geometry" />
        </mxCell>
        <mxCell id="n1vtJiZAt2Uj1GLHokMY-248" value="&lt;span style=&quot;font-size: 29px;&quot;&gt;B&lt;/span&gt;" style="ellipse;whiteSpace=wrap;html=1;aspect=fixed;" vertex="1" parent="1">
          <mxGeometry x="-330" y="865" width="50" height="50" as="geometry" />
        </mxCell>
        <mxCell id="n1vtJiZAt2Uj1GLHokMY-249" value="&lt;font style=&quot;font-size: 29px;&quot;&gt;C&lt;/font&gt;" style="ellipse;whiteSpace=wrap;html=1;aspect=fixed;" vertex="1" parent="1">
          <mxGeometry x="-225" y="865" width="50" height="50" as="geometry" />
        </mxCell>
        <mxCell id="n1vtJiZAt2Uj1GLHokMY-250" style="rounded=0;orthogonalLoop=1;jettySize=auto;html=1;exitX=0.5;exitY=1;exitDx=0;exitDy=0;entryX=0.5;entryY=0;entryDx=0;entryDy=0;endArrow=none;endFill=0;" edge="1" parent="1" source="n1vtJiZAt2Uj1GLHokMY-251" target="n1vtJiZAt2Uj1GLHokMY-252">
          <mxGeometry relative="1" as="geometry" />
        </mxCell>
        <mxCell id="n1vtJiZAt2Uj1GLHokMY-251" value="&lt;font style=&quot;font-size: 29px;&quot;&gt;B&lt;/font&gt;" style="ellipse;whiteSpace=wrap;html=1;aspect=fixed;" vertex="1" parent="1">
          <mxGeometry x="-272.5" y="977.5" width="50" height="50" as="geometry" />
        </mxCell>
        <mxCell id="n1vtJiZAt2Uj1GLHokMY-252" value="&lt;span style=&quot;font-size: 29px;&quot;&gt;D&lt;/span&gt;" style="ellipse;whiteSpace=wrap;html=1;aspect=fixed;" vertex="1" parent="1">
          <mxGeometry x="-327.5" y="1052.5" width="50" height="50" as="geometry" />
        </mxCell>
        <mxCell id="n1vtJiZAt2Uj1GLHokMY-253" style="rounded=0;orthogonalLoop=1;jettySize=auto;html=1;exitX=0.5;exitY=1;exitDx=0;exitDy=0;entryX=0.5;entryY=0;entryDx=0;entryDy=0;endArrow=none;endFill=0;" edge="1" parent="1" source="n1vtJiZAt2Uj1GLHokMY-255" target="n1vtJiZAt2Uj1GLHokMY-256">
          <mxGeometry relative="1" as="geometry" />
        </mxCell>
        <mxCell id="n1vtJiZAt2Uj1GLHokMY-254" style="rounded=0;orthogonalLoop=1;jettySize=auto;html=1;exitX=0.5;exitY=1;exitDx=0;exitDy=0;entryX=0.5;entryY=0;entryDx=0;entryDy=0;endArrow=none;endFill=0;" edge="1" parent="1" source="n1vtJiZAt2Uj1GLHokMY-255" target="n1vtJiZAt2Uj1GLHokMY-257">
          <mxGeometry relative="1" as="geometry" />
        </mxCell>
        <mxCell id="n1vtJiZAt2Uj1GLHokMY-255" value="&lt;font style=&quot;font-size: 29px;&quot;&gt;C&lt;/font&gt;" style="ellipse;whiteSpace=wrap;html=1;aspect=fixed;" vertex="1" parent="1">
          <mxGeometry x="-270" y="1155" width="50" height="50" as="geometry" />
        </mxCell>
        <mxCell id="n1vtJiZAt2Uj1GLHokMY-256" value="&lt;span style=&quot;font-size: 29px;&quot;&gt;E&lt;/span&gt;" style="ellipse;whiteSpace=wrap;html=1;aspect=fixed;" vertex="1" parent="1">
          <mxGeometry x="-325" y="1230" width="50" height="50" as="geometry" />
        </mxCell>
        <mxCell id="n1vtJiZAt2Uj1GLHokMY-257" value="&lt;font style=&quot;font-size: 29px;&quot;&gt;F&lt;/font&gt;" style="ellipse;whiteSpace=wrap;html=1;aspect=fixed;" vertex="1" parent="1">
          <mxGeometry x="-220" y="1230" width="50" height="50" as="geometry" />
        </mxCell>
        <mxCell id="n1vtJiZAt2Uj1GLHokMY-264" value="" style="rounded=0;whiteSpace=wrap;html=1;fillColor=none;dashed=1;strokeColor=#007FFF;strokeWidth=2;" vertex="1" parent="1">
          <mxGeometry x="-940" y="852.5" width="380" height="200" as="geometry" />
        </mxCell>
        <mxCell id="n1vtJiZAt2Uj1GLHokMY-265" value="" style="rounded=0;whiteSpace=wrap;html=1;fillColor=none;dashed=1;strokeColor=#FF9999;strokeWidth=2;" vertex="1" parent="1">
          <mxGeometry x="-1020" y="970" width="260" height="200" as="geometry" />
        </mxCell>
        <mxCell id="n1vtJiZAt2Uj1GLHokMY-266" value="" style="rounded=0;whiteSpace=wrap;html=1;fillColor=none;dashed=1;strokeColor=#97D077;strokeWidth=2;" vertex="1" parent="1">
          <mxGeometry x="-755" y="969" width="285" height="200" as="geometry" />
        </mxCell>
        <mxCell id="n1vtJiZAt2Uj1GLHokMY-267" value="" style="rounded=0;whiteSpace=wrap;html=1;" vertex="1" parent="1">
          <mxGeometry x="-1125" y="199.09000000000003" width="730" height="525" as="geometry" />
        </mxCell>
        <mxCell id="n1vtJiZAt2Uj1GLHokMY-268" style="rounded=0;orthogonalLoop=1;jettySize=auto;html=1;exitX=0.5;exitY=1;exitDx=0;exitDy=0;entryX=0.5;entryY=0;entryDx=0;entryDy=0;endArrow=none;endFill=0;" edge="1" parent="1" source="n1vtJiZAt2Uj1GLHokMY-270" target="n1vtJiZAt2Uj1GLHokMY-272">
          <mxGeometry relative="1" as="geometry" />
        </mxCell>
        <mxCell id="n1vtJiZAt2Uj1GLHokMY-269" style="rounded=0;orthogonalLoop=1;jettySize=auto;html=1;exitX=0.5;exitY=1;exitDx=0;exitDy=0;entryX=0.5;entryY=0;entryDx=0;entryDy=0;endArrow=none;endFill=0;" edge="1" parent="1" source="n1vtJiZAt2Uj1GLHokMY-270" target="n1vtJiZAt2Uj1GLHokMY-274">
          <mxGeometry relative="1" as="geometry" />
        </mxCell>
        <mxCell id="n1vtJiZAt2Uj1GLHokMY-270" value="&lt;font style=&quot;font-size: 29px;&quot;&gt;A&lt;/font&gt;" style="ellipse;whiteSpace=wrap;html=1;aspect=fixed;" vertex="1" parent="1">
          <mxGeometry x="-800" y="279.09000000000003" width="80" height="80" as="geometry" />
        </mxCell>
        <mxCell id="n1vtJiZAt2Uj1GLHokMY-271" style="rounded=0;orthogonalLoop=1;jettySize=auto;html=1;exitX=0.5;exitY=1;exitDx=0;exitDy=0;entryX=0.5;entryY=0;entryDx=0;entryDy=0;endArrow=none;endFill=0;" edge="1" parent="1" source="n1vtJiZAt2Uj1GLHokMY-272" target="n1vtJiZAt2Uj1GLHokMY-275">
          <mxGeometry relative="1" as="geometry" />
        </mxCell>
        <mxCell id="n1vtJiZAt2Uj1GLHokMY-272" value="&lt;font style=&quot;font-size: 29px;&quot;&gt;B&lt;/font&gt;" style="ellipse;whiteSpace=wrap;html=1;aspect=fixed;" vertex="1" parent="1">
          <mxGeometry x="-940" y="393.09000000000003" width="80" height="80" as="geometry" />
        </mxCell>
        <mxCell id="n1vtJiZAt2Uj1GLHokMY-273" style="rounded=0;orthogonalLoop=1;jettySize=auto;html=1;exitX=0.5;exitY=1;exitDx=0;exitDy=0;entryX=0.5;entryY=0;entryDx=0;entryDy=0;endArrow=none;endFill=0;" edge="1" parent="1" source="n1vtJiZAt2Uj1GLHokMY-274" target="n1vtJiZAt2Uj1GLHokMY-278">
          <mxGeometry relative="1" as="geometry" />
        </mxCell>
        <mxCell id="n1vtJiZAt2Uj1GLHokMY-274" value="&lt;font style=&quot;font-size: 29px;&quot;&gt;C&lt;/font&gt;" style="ellipse;whiteSpace=wrap;html=1;aspect=fixed;" vertex="1" parent="1">
          <mxGeometry x="-640" y="394.09000000000003" width="80" height="80" as="geometry" />
        </mxCell>
        <mxCell id="n1vtJiZAt2Uj1GLHokMY-275" value="&lt;font style=&quot;font-size: 29px;&quot;&gt;D&lt;/font&gt;" style="ellipse;whiteSpace=wrap;html=1;aspect=fixed;" vertex="1" parent="1">
          <mxGeometry x="-1020" y="513.09" width="80" height="80" as="geometry" />
        </mxCell>
        <mxCell id="n1vtJiZAt2Uj1GLHokMY-276" style="rounded=0;orthogonalLoop=1;jettySize=auto;html=1;exitX=0.5;exitY=0;exitDx=0;exitDy=0;entryX=0.5;entryY=1;entryDx=0;entryDy=0;endArrow=none;endFill=0;" edge="1" parent="1" source="n1vtJiZAt2Uj1GLHokMY-277" target="n1vtJiZAt2Uj1GLHokMY-274">
          <mxGeometry relative="1" as="geometry" />
        </mxCell>
        <mxCell id="n1vtJiZAt2Uj1GLHokMY-277" value="&lt;font style=&quot;font-size: 29px;&quot;&gt;E&lt;/font&gt;" style="ellipse;whiteSpace=wrap;html=1;aspect=fixed;" vertex="1" parent="1">
          <mxGeometry x="-720" y="514.09" width="80" height="80" as="geometry" />
        </mxCell>
        <mxCell id="n1vtJiZAt2Uj1GLHokMY-278" value="&lt;font style=&quot;font-size: 29px;&quot;&gt;F&lt;/font&gt;" style="ellipse;whiteSpace=wrap;html=1;aspect=fixed;" vertex="1" parent="1">
          <mxGeometry x="-560" y="514.09" width="80" height="80" as="geometry" />
        </mxCell>
        <mxCell id="n1vtJiZAt2Uj1GLHokMY-279" value="&lt;b style=&quot;font-size: 15px;&quot;&gt;서브트리들&lt;/b&gt;" style="rounded=0;whiteSpace=wrap;html=1;fillColor=#f5f5f5;fontColor=#333333;strokeColor=#666666;fontSize=15;" vertex="1" parent="1">
          <mxGeometry x="-1125" y="199.09000000000003" width="110" height="40" as="geometry" />
        </mxCell>
        <mxCell id="n1vtJiZAt2Uj1GLHokMY-281" style="edgeStyle=orthogonalEdgeStyle;rounded=0;orthogonalLoop=1;jettySize=auto;html=1;exitX=0.5;exitY=1;exitDx=0;exitDy=0;" edge="1" parent="1" source="n1vtJiZAt2Uj1GLHokMY-267" target="n1vtJiZAt2Uj1GLHokMY-267">
          <mxGeometry relative="1" as="geometry" />
        </mxCell>
        <mxCell id="n1vtJiZAt2Uj1GLHokMY-282" value="" style="rounded=0;whiteSpace=wrap;html=1;" vertex="1" parent="1">
          <mxGeometry x="-395" y="199.09000000000003" width="290" height="175" as="geometry" />
        </mxCell>
        <mxCell id="n1vtJiZAt2Uj1GLHokMY-283" value="" style="rounded=0;whiteSpace=wrap;html=1;" vertex="1" parent="1">
          <mxGeometry x="-395" y="374.09000000000003" width="290" height="175" as="geometry" />
        </mxCell>
        <mxCell id="n1vtJiZAt2Uj1GLHokMY-284" value="" style="rounded=0;whiteSpace=wrap;html=1;" vertex="1" parent="1">
          <mxGeometry x="-395" y="549.09" width="290" height="175" as="geometry" />
        </mxCell>
        <mxCell id="n1vtJiZAt2Uj1GLHokMY-285" style="rounded=0;orthogonalLoop=1;jettySize=auto;html=1;exitX=0.5;exitY=1;exitDx=0;exitDy=0;entryX=0.5;entryY=0;entryDx=0;entryDy=0;endArrow=none;endFill=0;" edge="1" parent="1" source="n1vtJiZAt2Uj1GLHokMY-287" target="n1vtJiZAt2Uj1GLHokMY-288">
          <mxGeometry relative="1" as="geometry" />
        </mxCell>
        <mxCell id="n1vtJiZAt2Uj1GLHokMY-286" style="rounded=0;orthogonalLoop=1;jettySize=auto;html=1;exitX=0.5;exitY=1;exitDx=0;exitDy=0;entryX=0.5;entryY=0;entryDx=0;entryDy=0;endArrow=none;endFill=0;" edge="1" parent="1" source="n1vtJiZAt2Uj1GLHokMY-287" target="n1vtJiZAt2Uj1GLHokMY-289">
          <mxGeometry relative="1" as="geometry" />
        </mxCell>
        <mxCell id="n1vtJiZAt2Uj1GLHokMY-287" value="&lt;font style=&quot;font-size: 29px;&quot;&gt;A&lt;/font&gt;" style="ellipse;whiteSpace=wrap;html=1;aspect=fixed;" vertex="1" parent="1">
          <mxGeometry x="-275" y="214.09000000000003" width="50" height="50" as="geometry" />
        </mxCell>
        <mxCell id="n1vtJiZAt2Uj1GLHokMY-288" value="&lt;span style=&quot;font-size: 29px;&quot;&gt;B&lt;/span&gt;" style="ellipse;whiteSpace=wrap;html=1;aspect=fixed;" vertex="1" parent="1">
          <mxGeometry x="-330" y="289.09000000000003" width="50" height="50" as="geometry" />
        </mxCell>
        <mxCell id="n1vtJiZAt2Uj1GLHokMY-289" value="&lt;font style=&quot;font-size: 29px;&quot;&gt;C&lt;/font&gt;" style="ellipse;whiteSpace=wrap;html=1;aspect=fixed;" vertex="1" parent="1">
          <mxGeometry x="-225" y="289.09000000000003" width="50" height="50" as="geometry" />
        </mxCell>
        <mxCell id="n1vtJiZAt2Uj1GLHokMY-290" style="rounded=0;orthogonalLoop=1;jettySize=auto;html=1;exitX=0.5;exitY=1;exitDx=0;exitDy=0;entryX=0.5;entryY=0;entryDx=0;entryDy=0;endArrow=none;endFill=0;" edge="1" parent="1" source="n1vtJiZAt2Uj1GLHokMY-291" target="n1vtJiZAt2Uj1GLHokMY-292">
          <mxGeometry relative="1" as="geometry" />
        </mxCell>
        <mxCell id="n1vtJiZAt2Uj1GLHokMY-291" value="&lt;font style=&quot;font-size: 29px;&quot;&gt;B&lt;/font&gt;" style="ellipse;whiteSpace=wrap;html=1;aspect=fixed;" vertex="1" parent="1">
          <mxGeometry x="-272.5" y="401.59000000000003" width="50" height="50" as="geometry" />
        </mxCell>
        <mxCell id="n1vtJiZAt2Uj1GLHokMY-292" value="&lt;span style=&quot;font-size: 29px;&quot;&gt;D&lt;/span&gt;" style="ellipse;whiteSpace=wrap;html=1;aspect=fixed;" vertex="1" parent="1">
          <mxGeometry x="-327.5" y="476.59000000000003" width="50" height="50" as="geometry" />
        </mxCell>
        <mxCell id="n1vtJiZAt2Uj1GLHokMY-293" style="rounded=0;orthogonalLoop=1;jettySize=auto;html=1;exitX=0.5;exitY=1;exitDx=0;exitDy=0;entryX=0.5;entryY=0;entryDx=0;entryDy=0;endArrow=none;endFill=0;" edge="1" parent="1" source="n1vtJiZAt2Uj1GLHokMY-295" target="n1vtJiZAt2Uj1GLHokMY-296">
          <mxGeometry relative="1" as="geometry" />
        </mxCell>
        <mxCell id="n1vtJiZAt2Uj1GLHokMY-294" style="rounded=0;orthogonalLoop=1;jettySize=auto;html=1;exitX=0.5;exitY=1;exitDx=0;exitDy=0;entryX=0.5;entryY=0;entryDx=0;entryDy=0;endArrow=none;endFill=0;" edge="1" parent="1" source="n1vtJiZAt2Uj1GLHokMY-295" target="n1vtJiZAt2Uj1GLHokMY-297">
          <mxGeometry relative="1" as="geometry" />
        </mxCell>
        <mxCell id="n1vtJiZAt2Uj1GLHokMY-295" value="&lt;font style=&quot;font-size: 29px;&quot;&gt;C&lt;/font&gt;" style="ellipse;whiteSpace=wrap;html=1;aspect=fixed;" vertex="1" parent="1">
          <mxGeometry x="-270" y="579.09" width="50" height="50" as="geometry" />
        </mxCell>
        <mxCell id="n1vtJiZAt2Uj1GLHokMY-296" value="&lt;span style=&quot;font-size: 29px;&quot;&gt;E&lt;/span&gt;" style="ellipse;whiteSpace=wrap;html=1;aspect=fixed;" vertex="1" parent="1">
          <mxGeometry x="-325" y="654.09" width="50" height="50" as="geometry" />
        </mxCell>
        <mxCell id="n1vtJiZAt2Uj1GLHokMY-297" value="&lt;font style=&quot;font-size: 29px;&quot;&gt;F&lt;/font&gt;" style="ellipse;whiteSpace=wrap;html=1;aspect=fixed;" vertex="1" parent="1">
          <mxGeometry x="-220" y="654.09" width="50" height="50" as="geometry" />
        </mxCell>
        <mxCell id="n1vtJiZAt2Uj1GLHokMY-298" value="" style="rounded=0;whiteSpace=wrap;html=1;fillColor=none;dashed=1;strokeColor=#007FFF;strokeWidth=2;" vertex="1" parent="1">
          <mxGeometry x="-940" y="276.59000000000003" width="380" height="200" as="geometry" />
        </mxCell>
        <mxCell id="n1vtJiZAt2Uj1GLHokMY-299" value="" style="rounded=0;whiteSpace=wrap;html=1;fillColor=none;dashed=1;strokeColor=#FF9999;strokeWidth=2;" vertex="1" parent="1">
          <mxGeometry x="-1020" y="394.09000000000003" width="260" height="200" as="geometry" />
        </mxCell>
        <mxCell id="n1vtJiZAt2Uj1GLHokMY-300" value="" style="rounded=0;whiteSpace=wrap;html=1;fillColor=none;dashed=1;strokeColor=#97D077;strokeWidth=2;" vertex="1" parent="1">
          <mxGeometry x="-755" y="393.09000000000003" width="285" height="200" as="geometry" />
        </mxCell>
        <mxCell id="n1vtJiZAt2Uj1GLHokMY-301" value="&lt;font style=&quot;font-size: 18px;&quot;&gt;1&lt;/font&gt;" style="ellipse;whiteSpace=wrap;html=1;aspect=fixed;fillColor=#0050ef;strokeColor=#001DBC;fontColor=#ffffff;" vertex="1" parent="1">
          <mxGeometry x="-930" y="860" width="20" height="20" as="geometry" />
        </mxCell>
        <mxCell id="n1vtJiZAt2Uj1GLHokMY-302" value="&lt;font style=&quot;font-size: 18px;&quot;&gt;2&lt;/font&gt;" style="ellipse;whiteSpace=wrap;html=1;aspect=fixed;fillColor=#d80073;strokeColor=#A50040;fontColor=#ffffff;" vertex="1" parent="1">
          <mxGeometry x="-1010" y="980" width="20" height="20" as="geometry" />
        </mxCell>
        <mxCell id="n1vtJiZAt2Uj1GLHokMY-303" value="&lt;font style=&quot;font-size: 18px;&quot;&gt;3&lt;/font&gt;" style="ellipse;whiteSpace=wrap;html=1;aspect=fixed;fillColor=#008a00;strokeColor=#005700;fontColor=#ffffff;" vertex="1" parent="1">
          <mxGeometry x="-740" y="980" width="20" height="20" as="geometry" />
        </mxCell>
        <mxCell id="n1vtJiZAt2Uj1GLHokMY-304" value="&lt;font style=&quot;font-size: 18px;&quot;&gt;1&lt;/font&gt;" style="ellipse;whiteSpace=wrap;html=1;aspect=fixed;" vertex="1" parent="1">
          <mxGeometry x="-300" y="795" width="20" height="20" as="geometry" />
        </mxCell>
        <mxCell id="n1vtJiZAt2Uj1GLHokMY-305" value="&lt;font style=&quot;font-size: 18px;&quot;&gt;2&lt;/font&gt;" style="ellipse;whiteSpace=wrap;html=1;aspect=fixed;" vertex="1" parent="1">
          <mxGeometry x="-347.5" y="850" width="20" height="20" as="geometry" />
        </mxCell>
        <mxCell id="n1vtJiZAt2Uj1GLHokMY-307" value="&lt;font style=&quot;font-size: 18px;&quot;&gt;2&lt;/font&gt;" style="ellipse;whiteSpace=wrap;html=1;aspect=fixed;" vertex="1" parent="1">
          <mxGeometry x="-295" y="970" width="20" height="20" as="geometry" />
        </mxCell>
        <mxCell id="n1vtJiZAt2Uj1GLHokMY-308" value="&lt;font style=&quot;font-size: 18px;&quot;&gt;3&lt;/font&gt;" style="ellipse;whiteSpace=wrap;html=1;aspect=fixed;" vertex="1" parent="1">
          <mxGeometry x="-350" y="1040" width="20" height="20" as="geometry" />
        </mxCell>
        <mxCell id="n1vtJiZAt2Uj1GLHokMY-309" value="&lt;font style=&quot;font-size: 18px;&quot;&gt;4&lt;/font&gt;" style="ellipse;whiteSpace=wrap;html=1;aspect=fixed;" vertex="1" parent="1">
          <mxGeometry x="-297.5" y="1150" width="20" height="20" as="geometry" />
        </mxCell>
        <mxCell id="n1vtJiZAt2Uj1GLHokMY-310" value="&lt;font style=&quot;font-size: 18px;&quot;&gt;5&lt;/font&gt;" style="ellipse;whiteSpace=wrap;html=1;aspect=fixed;" vertex="1" parent="1">
          <mxGeometry x="-345" y="1220" width="20" height="20" as="geometry" />
        </mxCell>
        <mxCell id="n1vtJiZAt2Uj1GLHokMY-311" value="&lt;font style=&quot;font-size: 18px;&quot;&gt;6&lt;/font&gt;" style="ellipse;whiteSpace=wrap;html=1;aspect=fixed;" vertex="1" parent="1">
          <mxGeometry x="-240" y="1225" width="20" height="20" as="geometry" />
        </mxCell>
        <mxCell id="n1vtJiZAt2Uj1GLHokMY-312" value="" style="rounded=0;whiteSpace=wrap;html=1;" vertex="1" parent="1">
          <mxGeometry x="-1150" y="1330" width="1070" height="580" as="geometry" />
        </mxCell>
        <mxCell id="n1vtJiZAt2Uj1GLHokMY-313" value="" style="rounded=0;whiteSpace=wrap;html=1;" vertex="1" parent="1">
          <mxGeometry x="-1125" y="1355" width="730" height="525" as="geometry" />
        </mxCell>
        <mxCell id="n1vtJiZAt2Uj1GLHokMY-314" style="rounded=0;orthogonalLoop=1;jettySize=auto;html=1;exitX=0.5;exitY=1;exitDx=0;exitDy=0;entryX=0.5;entryY=0;entryDx=0;entryDy=0;endArrow=none;endFill=0;" edge="1" parent="1" source="n1vtJiZAt2Uj1GLHokMY-316" target="n1vtJiZAt2Uj1GLHokMY-318">
          <mxGeometry relative="1" as="geometry" />
        </mxCell>
        <mxCell id="n1vtJiZAt2Uj1GLHokMY-315" style="rounded=0;orthogonalLoop=1;jettySize=auto;html=1;exitX=0.5;exitY=1;exitDx=0;exitDy=0;entryX=0.5;entryY=0;entryDx=0;entryDy=0;endArrow=none;endFill=0;" edge="1" parent="1" source="n1vtJiZAt2Uj1GLHokMY-316" target="n1vtJiZAt2Uj1GLHokMY-320">
          <mxGeometry relative="1" as="geometry" />
        </mxCell>
        <mxCell id="n1vtJiZAt2Uj1GLHokMY-316" value="&lt;font style=&quot;font-size: 29px;&quot;&gt;A&lt;/font&gt;" style="ellipse;whiteSpace=wrap;html=1;aspect=fixed;" vertex="1" parent="1">
          <mxGeometry x="-800" y="1435" width="80" height="80" as="geometry" />
        </mxCell>
        <mxCell id="n1vtJiZAt2Uj1GLHokMY-317" style="rounded=0;orthogonalLoop=1;jettySize=auto;html=1;exitX=0.5;exitY=1;exitDx=0;exitDy=0;entryX=0.5;entryY=0;entryDx=0;entryDy=0;endArrow=none;endFill=0;" edge="1" parent="1" source="n1vtJiZAt2Uj1GLHokMY-318" target="n1vtJiZAt2Uj1GLHokMY-321">
          <mxGeometry relative="1" as="geometry" />
        </mxCell>
        <mxCell id="n1vtJiZAt2Uj1GLHokMY-318" value="&lt;font style=&quot;font-size: 29px;&quot;&gt;B&lt;/font&gt;" style="ellipse;whiteSpace=wrap;html=1;aspect=fixed;" vertex="1" parent="1">
          <mxGeometry x="-940" y="1549" width="80" height="80" as="geometry" />
        </mxCell>
        <mxCell id="n1vtJiZAt2Uj1GLHokMY-319" style="rounded=0;orthogonalLoop=1;jettySize=auto;html=1;exitX=0.5;exitY=1;exitDx=0;exitDy=0;entryX=0.5;entryY=0;entryDx=0;entryDy=0;endArrow=none;endFill=0;" edge="1" parent="1" source="n1vtJiZAt2Uj1GLHokMY-320" target="n1vtJiZAt2Uj1GLHokMY-324">
          <mxGeometry relative="1" as="geometry" />
        </mxCell>
        <mxCell id="n1vtJiZAt2Uj1GLHokMY-320" value="&lt;font style=&quot;font-size: 29px;&quot;&gt;C&lt;/font&gt;" style="ellipse;whiteSpace=wrap;html=1;aspect=fixed;" vertex="1" parent="1">
          <mxGeometry x="-640" y="1550" width="80" height="80" as="geometry" />
        </mxCell>
        <mxCell id="n1vtJiZAt2Uj1GLHokMY-321" value="&lt;font style=&quot;font-size: 29px;&quot;&gt;D&lt;/font&gt;" style="ellipse;whiteSpace=wrap;html=1;aspect=fixed;" vertex="1" parent="1">
          <mxGeometry x="-1020" y="1669" width="80" height="80" as="geometry" />
        </mxCell>
        <mxCell id="n1vtJiZAt2Uj1GLHokMY-322" style="rounded=0;orthogonalLoop=1;jettySize=auto;html=1;exitX=0.5;exitY=0;exitDx=0;exitDy=0;entryX=0.5;entryY=1;entryDx=0;entryDy=0;endArrow=none;endFill=0;" edge="1" parent="1" source="n1vtJiZAt2Uj1GLHokMY-323" target="n1vtJiZAt2Uj1GLHokMY-320">
          <mxGeometry relative="1" as="geometry" />
        </mxCell>
        <mxCell id="n1vtJiZAt2Uj1GLHokMY-323" value="&lt;font style=&quot;font-size: 29px;&quot;&gt;E&lt;/font&gt;" style="ellipse;whiteSpace=wrap;html=1;aspect=fixed;" vertex="1" parent="1">
          <mxGeometry x="-720" y="1670" width="80" height="80" as="geometry" />
        </mxCell>
        <mxCell id="n1vtJiZAt2Uj1GLHokMY-324" value="&lt;font style=&quot;font-size: 29px;&quot;&gt;F&lt;/font&gt;" style="ellipse;whiteSpace=wrap;html=1;aspect=fixed;" vertex="1" parent="1">
          <mxGeometry x="-560" y="1670" width="80" height="80" as="geometry" />
        </mxCell>
        <mxCell id="n1vtJiZAt2Uj1GLHokMY-325" value="&lt;b style=&quot;font-size: 15px;&quot;&gt;중위 순회&lt;/b&gt;" style="rounded=0;whiteSpace=wrap;html=1;fillColor=#f5f5f5;fontColor=#333333;strokeColor=#666666;fontSize=15;" vertex="1" parent="1">
          <mxGeometry x="-1125" y="1355" width="110" height="40" as="geometry" />
        </mxCell>
        <mxCell id="n1vtJiZAt2Uj1GLHokMY-326" value="&lt;font style=&quot;font-size: 16px;&quot;&gt;&lt;b&gt;왼쪽 서브트리 -&amp;gt; 루트 -&amp;gt; 오른쪽 서브트리 순으로 순회&lt;/b&gt;&lt;/font&gt;" style="text;strokeColor=none;align=left;fillColor=none;html=1;verticalAlign=middle;whiteSpace=wrap;rounded=0;" vertex="1" parent="1">
          <mxGeometry x="-1010" y="1360" width="405" height="30" as="geometry" />
        </mxCell>
        <mxCell id="n1vtJiZAt2Uj1GLHokMY-327" style="edgeStyle=orthogonalEdgeStyle;rounded=0;orthogonalLoop=1;jettySize=auto;html=1;exitX=0.5;exitY=1;exitDx=0;exitDy=0;" edge="1" parent="1" source="n1vtJiZAt2Uj1GLHokMY-313" target="n1vtJiZAt2Uj1GLHokMY-313">
          <mxGeometry relative="1" as="geometry" />
        </mxCell>
        <mxCell id="n1vtJiZAt2Uj1GLHokMY-328" value="" style="rounded=0;whiteSpace=wrap;html=1;" vertex="1" parent="1">
          <mxGeometry x="-395" y="1355" width="290" height="175" as="geometry" />
        </mxCell>
        <mxCell id="n1vtJiZAt2Uj1GLHokMY-329" value="" style="rounded=0;whiteSpace=wrap;html=1;" vertex="1" parent="1">
          <mxGeometry x="-395" y="1530" width="290" height="175" as="geometry" />
        </mxCell>
        <mxCell id="n1vtJiZAt2Uj1GLHokMY-330" value="" style="rounded=0;whiteSpace=wrap;html=1;" vertex="1" parent="1">
          <mxGeometry x="-395" y="1705" width="290" height="175" as="geometry" />
        </mxCell>
        <mxCell id="n1vtJiZAt2Uj1GLHokMY-331" style="rounded=0;orthogonalLoop=1;jettySize=auto;html=1;exitX=0.5;exitY=1;exitDx=0;exitDy=0;entryX=0.5;entryY=0;entryDx=0;entryDy=0;endArrow=none;endFill=0;" edge="1" parent="1" source="n1vtJiZAt2Uj1GLHokMY-333" target="n1vtJiZAt2Uj1GLHokMY-334">
          <mxGeometry relative="1" as="geometry" />
        </mxCell>
        <mxCell id="n1vtJiZAt2Uj1GLHokMY-333" value="&lt;font style=&quot;font-size: 29px;&quot;&gt;B&lt;/font&gt;" style="ellipse;whiteSpace=wrap;html=1;aspect=fixed;" vertex="1" parent="1">
          <mxGeometry x="-275" y="1370" width="50" height="50" as="geometry" />
        </mxCell>
        <mxCell id="n1vtJiZAt2Uj1GLHokMY-334" value="&lt;span style=&quot;font-size: 29px;&quot;&gt;D&lt;/span&gt;" style="ellipse;whiteSpace=wrap;html=1;aspect=fixed;" vertex="1" parent="1">
          <mxGeometry x="-330" y="1445" width="50" height="50" as="geometry" />
        </mxCell>
        <mxCell id="n1vtJiZAt2Uj1GLHokMY-336" style="rounded=0;orthogonalLoop=1;jettySize=auto;html=1;exitX=0.5;exitY=1;exitDx=0;exitDy=0;entryX=0.5;entryY=0;entryDx=0;entryDy=0;endArrow=none;endFill=0;" edge="1" parent="1" source="n1vtJiZAt2Uj1GLHokMY-337" target="n1vtJiZAt2Uj1GLHokMY-338">
          <mxGeometry relative="1" as="geometry" />
        </mxCell>
        <mxCell id="n1vtJiZAt2Uj1GLHokMY-337" value="&lt;font style=&quot;font-size: 29px;&quot;&gt;A&lt;/font&gt;" style="ellipse;whiteSpace=wrap;html=1;aspect=fixed;" vertex="1" parent="1">
          <mxGeometry x="-272.5" y="1557.5" width="50" height="50" as="geometry" />
        </mxCell>
        <mxCell id="n1vtJiZAt2Uj1GLHokMY-338" value="&lt;span style=&quot;font-size: 29px;&quot;&gt;B&lt;/span&gt;" style="ellipse;whiteSpace=wrap;html=1;aspect=fixed;" vertex="1" parent="1">
          <mxGeometry x="-327.5" y="1632.5" width="50" height="50" as="geometry" />
        </mxCell>
        <mxCell id="n1vtJiZAt2Uj1GLHokMY-339" style="rounded=0;orthogonalLoop=1;jettySize=auto;html=1;exitX=0.5;exitY=1;exitDx=0;exitDy=0;entryX=0.5;entryY=0;entryDx=0;entryDy=0;endArrow=none;endFill=0;" edge="1" parent="1" source="n1vtJiZAt2Uj1GLHokMY-341" target="n1vtJiZAt2Uj1GLHokMY-342">
          <mxGeometry relative="1" as="geometry" />
        </mxCell>
        <mxCell id="n1vtJiZAt2Uj1GLHokMY-340" style="rounded=0;orthogonalLoop=1;jettySize=auto;html=1;exitX=0.5;exitY=1;exitDx=0;exitDy=0;entryX=0.5;entryY=0;entryDx=0;entryDy=0;endArrow=none;endFill=0;" edge="1" parent="1" source="n1vtJiZAt2Uj1GLHokMY-341" target="n1vtJiZAt2Uj1GLHokMY-343">
          <mxGeometry relative="1" as="geometry" />
        </mxCell>
        <mxCell id="n1vtJiZAt2Uj1GLHokMY-341" value="&lt;font style=&quot;font-size: 29px;&quot;&gt;C&lt;/font&gt;" style="ellipse;whiteSpace=wrap;html=1;aspect=fixed;" vertex="1" parent="1">
          <mxGeometry x="-270" y="1735" width="50" height="50" as="geometry" />
        </mxCell>
        <mxCell id="n1vtJiZAt2Uj1GLHokMY-342" value="&lt;span style=&quot;font-size: 29px;&quot;&gt;E&lt;/span&gt;" style="ellipse;whiteSpace=wrap;html=1;aspect=fixed;" vertex="1" parent="1">
          <mxGeometry x="-325" y="1810" width="50" height="50" as="geometry" />
        </mxCell>
        <mxCell id="n1vtJiZAt2Uj1GLHokMY-343" value="&lt;font style=&quot;font-size: 29px;&quot;&gt;F&lt;/font&gt;" style="ellipse;whiteSpace=wrap;html=1;aspect=fixed;" vertex="1" parent="1">
          <mxGeometry x="-210" y="1810" width="50" height="50" as="geometry" />
        </mxCell>
        <mxCell id="n1vtJiZAt2Uj1GLHokMY-344" value="" style="rounded=0;whiteSpace=wrap;html=1;fillColor=none;dashed=1;strokeColor=#007FFF;strokeWidth=2;" vertex="1" parent="1">
          <mxGeometry x="-940" y="1432.5" width="380" height="200" as="geometry" />
        </mxCell>
        <mxCell id="n1vtJiZAt2Uj1GLHokMY-345" value="" style="rounded=0;whiteSpace=wrap;html=1;fillColor=none;dashed=1;strokeColor=#FF9999;strokeWidth=2;" vertex="1" parent="1">
          <mxGeometry x="-1020" y="1550" width="260" height="200" as="geometry" />
        </mxCell>
        <mxCell id="n1vtJiZAt2Uj1GLHokMY-346" value="" style="rounded=0;whiteSpace=wrap;html=1;fillColor=none;dashed=1;strokeColor=#97D077;strokeWidth=2;" vertex="1" parent="1">
          <mxGeometry x="-755" y="1549" width="285" height="200" as="geometry" />
        </mxCell>
        <mxCell id="n1vtJiZAt2Uj1GLHokMY-347" value="&lt;font style=&quot;font-size: 18px;&quot;&gt;2&lt;/font&gt;" style="ellipse;whiteSpace=wrap;html=1;aspect=fixed;fillColor=#0050ef;strokeColor=#001DBC;fontColor=#ffffff;" vertex="1" parent="1">
          <mxGeometry x="-930" y="1440" width="20" height="20" as="geometry" />
        </mxCell>
        <mxCell id="n1vtJiZAt2Uj1GLHokMY-348" value="&lt;font style=&quot;font-size: 18px;&quot;&gt;1&lt;/font&gt;" style="ellipse;whiteSpace=wrap;html=1;aspect=fixed;fillColor=#d80073;strokeColor=#A50040;fontColor=#ffffff;" vertex="1" parent="1">
          <mxGeometry x="-1010" y="1560" width="20" height="20" as="geometry" />
        </mxCell>
        <mxCell id="n1vtJiZAt2Uj1GLHokMY-349" value="&lt;font style=&quot;font-size: 18px;&quot;&gt;3&lt;/font&gt;" style="ellipse;whiteSpace=wrap;html=1;aspect=fixed;fillColor=#008a00;strokeColor=#005700;fontColor=#ffffff;" vertex="1" parent="1">
          <mxGeometry x="-740" y="1560" width="20" height="20" as="geometry" />
        </mxCell>
        <mxCell id="n1vtJiZAt2Uj1GLHokMY-350" value="&lt;font style=&quot;font-size: 18px;&quot;&gt;2&lt;/font&gt;" style="ellipse;whiteSpace=wrap;html=1;aspect=fixed;" vertex="1" parent="1">
          <mxGeometry x="-300" y="1375" width="20" height="20" as="geometry" />
        </mxCell>
        <mxCell id="n1vtJiZAt2Uj1GLHokMY-351" value="&lt;font style=&quot;font-size: 18px;&quot;&gt;1&lt;/font&gt;" style="ellipse;whiteSpace=wrap;html=1;aspect=fixed;" vertex="1" parent="1">
          <mxGeometry x="-347.5" y="1430" width="20" height="20" as="geometry" />
        </mxCell>
        <mxCell id="n1vtJiZAt2Uj1GLHokMY-352" value="&lt;font style=&quot;font-size: 18px;&quot;&gt;3&lt;/font&gt;" style="ellipse;whiteSpace=wrap;html=1;aspect=fixed;" vertex="1" parent="1">
          <mxGeometry x="-295" y="1550" width="20" height="20" as="geometry" />
        </mxCell>
        <mxCell id="n1vtJiZAt2Uj1GLHokMY-353" value="&lt;font style=&quot;font-size: 18px;&quot;&gt;2&lt;/font&gt;" style="ellipse;whiteSpace=wrap;html=1;aspect=fixed;" vertex="1" parent="1">
          <mxGeometry x="-350" y="1620" width="20" height="20" as="geometry" />
        </mxCell>
        <mxCell id="n1vtJiZAt2Uj1GLHokMY-354" value="&lt;font style=&quot;font-size: 18px;&quot;&gt;4&lt;/font&gt;" style="ellipse;whiteSpace=wrap;html=1;aspect=fixed;" vertex="1" parent="1">
          <mxGeometry x="-297.5" y="1730" width="20" height="20" as="geometry" />
        </mxCell>
        <mxCell id="n1vtJiZAt2Uj1GLHokMY-355" value="&lt;font style=&quot;font-size: 18px;&quot;&gt;5&lt;/font&gt;" style="ellipse;whiteSpace=wrap;html=1;aspect=fixed;" vertex="1" parent="1">
          <mxGeometry x="-345" y="1800" width="20" height="20" as="geometry" />
        </mxCell>
        <mxCell id="n1vtJiZAt2Uj1GLHokMY-356" value="&lt;font style=&quot;font-size: 18px;&quot;&gt;6&lt;/font&gt;" style="ellipse;whiteSpace=wrap;html=1;aspect=fixed;" vertex="1" parent="1">
          <mxGeometry x="-230" y="1800" width="20" height="20" as="geometry" />
        </mxCell>
        <mxCell id="n1vtJiZAt2Uj1GLHokMY-360" style="rounded=0;orthogonalLoop=1;jettySize=auto;html=1;entryX=0.5;entryY=1;entryDx=0;entryDy=0;endArrow=none;endFill=0;exitX=0.5;exitY=0;exitDx=0;exitDy=0;" edge="1" parent="1" source="n1vtJiZAt2Uj1GLHokMY-359" target="n1vtJiZAt2Uj1GLHokMY-337">
          <mxGeometry relative="1" as="geometry" />
        </mxCell>
        <mxCell id="n1vtJiZAt2Uj1GLHokMY-359" value="&lt;span style=&quot;font-size: 29px;&quot;&gt;C&lt;/span&gt;" style="ellipse;whiteSpace=wrap;html=1;aspect=fixed;" vertex="1" parent="1">
          <mxGeometry x="-210" y="1632.5" width="50" height="50" as="geometry" />
        </mxCell>
        <mxCell id="n1vtJiZAt2Uj1GLHokMY-361" value="&lt;font style=&quot;font-size: 18px;&quot;&gt;4&lt;/font&gt;" style="ellipse;whiteSpace=wrap;html=1;aspect=fixed;" vertex="1" parent="1">
          <mxGeometry x="-230" y="1620" width="20" height="20" as="geometry" />
        </mxCell>
      </root>
    </mxGraphModel>
  </diagram>
</mxfile>
